<svg width="48" height="48" xmlns="http://www.w3.org/2000/svg">

 <g>
  <title>background</title>
  <rect fill="none" id="canvas_background" height="402" width="582" y="-1" x="-1"/>
 </g>
 <g>
  <title>Layer 1</title>
  <path stroke="null" id="svg_2" fill="#ff430f" d="m33.11047,19.135065c-0.005188,-0.010375 -0.013488,-0.02075 -0.021788,-0.030088l0,0.005188c-0.378695,-0.453397 -0.997057,-1.110147 -2.01279,-2.036653c0.849729,1.692196 1.877912,5.249854 2.01279,7.296883l0,0.658826c0,0.105827 -0.015563,0.203354 -0.030088,0.301919c-0.007263,0.044613 -0.01245,0.092339 -0.0249,0.134878c-0.197129,0.820679 -0.933769,1.436966 -1.816699,1.436966c-1.032333,0 -1.871687,-0.838317 -1.871687,-1.873762l0,-0.709664c-0.264568,-4.65328 -1.313501,-7.556263 -2.625965,-9.862671c-0.348607,-0.561299 -2.061554,-3.24744 -3.555583,-4.437476c-0.002075,-0.003113 -0.005188,-0.00415 -0.007263,-0.007263c0.273905,1.570806 0.415008,3.088699 0.454434,4.517365c0.002075,-0.002075 0.003113,-0.00415 0.005188,-0.005188c0.561299,9.305523 -1.798023,11.510254 -1.798023,11.510254l-0.011413,-0.013488c-0.327857,0.517723 -0.873592,0.880855 -1.532418,0.880855c-0.641188,0 -1.200411,-0.327857 -1.535531,-0.820679l-0.002075,0.003113c0,0 -0.0083,-0.010375 -0.011413,-0.015563s-0.006225,-0.010375 -0.009338,-0.014525c-0.092339,-0.13799 -0.633925,-0.985645 -0.853879,-2.40186c-0.002075,-0.0166 0,-0.023863 -0.002075,-0.039426c-0.249005,-1.390278 -0.077814,-2.679916 0.171191,-3.668673c0.003113,-0.015563 0,-0.0249 0.003113,-0.042538c0.007263,-0.029051 0.018675,-0.062251 0.025938,-0.091302c0.018675,-0.067439 0.035276,-0.126578 0.054989,-0.192979c0.219954,-0.781253 0.558186,-1.622682 0.837279,-2.262833c0.029051,-0.069514 0.065364,-0.144215 0.096489,-0.214767c0.115165,-0.258343 0.208542,-0.455472 0.274943,-0.592424c0.0249,-0.050839 0.043576,-0.096489 0.070551,-0.148365c0.0083,-0.014525 0.022825,-0.044613 0.022825,-0.044613l0.001038,0.003113c0.318519,-0.602799 0.727302,-1.257475 1.266813,-1.960914c-2.532588,1.345664 -4.273548,2.897795 -5.483297,4.378337c-0.839354,0.973194 -1.516855,2.079191 -2.00034,3.292053c-0.601762,1.448379 -0.689951,2.443361 -0.689951,2.443361l0.0166,-0.02075c-0.098564,0.609025 -0.162891,1.230499 -0.162891,1.863387c0,6.425365 5.208354,11.634757 11.634757,11.634757c6.42329,0 11.634757,-5.209391 11.634757,-11.634757c0,-2.39771 -0.733527,-4.62423 -1.977514,-6.476204c-0.005188,-0.011413 -0.12554,-0.243817 -0.546773,-0.741827z"/>
  <path stroke="null" id="svg_3" fill="#ff430f" d="m23.998827,0.989943c-12.706836,0 -23.008884,10.300877 -23.008884,23.011227c0,12.706836 10.302049,23.008884 23.008884,23.008884c12.709179,0 23.011227,-10.302049 23.011227,-23.008884c0,-12.71035 -10.302049,-23.011227 -23.011227,-23.011227zm0,43.142098c-11.120824,0 -20.133213,-9.012389 -20.133213,-20.132042c0,-11.120824 9.012389,-20.134385 20.133213,-20.134385c11.118481,0 20.133213,9.01356 20.133213,20.134385c0,11.119653 -9.015903,20.132042 -20.133213,20.132042z"/>
 </g>
</svg>